<svg xmlns="http://www.w3.org/2000/svg" xmlns:xlink="http://www.w3.org/1999/xlink" width="559" zoomAndPan="magnify" viewBox="0 0 419.25 297.75" height="396" preserveAspectRatio="xMidYMid meet" version="1.0"><defs><g/><clipPath id="2e8a3e8233"><path d="M 52.859375 121.105469 L 366 121.105469 L 366 159.886719 L 52.859375 159.886719 Z M 52.859375 121.105469 " clip-rule="nonzero"/></clipPath></defs><g fill="#000000" fill-opacity="1"><g transform="translate(82.018103, 191.492343)"><g><path d="M 38.4375 0.484375 L 9.609375 -96.4375 C 8.847656 -98.925781 8.03125 -100.738281 7.15625 -101.875 C 6.289062 -103.019531 4.773438 -104.082031 2.609375 -105.0625 L 0.65625 -105.875 L 0.65625 -107.515625 L 43.8125 -107.515625 L 43.8125 -105.875 L 40.390625 -104.578125 C 37.898438 -103.597656 36.21875 -102.398438 35.34375 -100.984375 C 34.476562 -99.578125 34.425781 -97.625 35.1875 -95.125 L 52.9375 -27.359375 L 72.15625 -84.21875 L 68.421875 -95.78125 C 67.660156 -98.0625 66.953125 -99.796875 66.296875 -100.984375 C 65.640625 -102.179688 64.550781 -103.160156 63.03125 -103.921875 L 59.453125 -105.875 L 59.453125 -107.515625 L 100.34375 -107.515625 L 100.34375 -105.875 L 95.296875 -103.921875 C 93.117188 -103.160156 91.894531 -102.046875 91.625 -100.578125 C 91.351562 -99.117188 91.597656 -97.25 92.359375 -94.96875 L 113.046875 -25.734375 L 132.59375 -93.65625 C 133.351562 -96.269531 133.625 -98.550781 133.40625 -100.5 C 133.1875 -102.457031 131.828125 -103.867188 129.328125 -104.734375 L 125.921875 -105.875 L 125.921875 -107.515625 L 148.5625 -107.515625 L 148.5625 -105.875 L 144.328125 -104.25 C 142.148438 -103.488281 140.625 -102.289062 139.75 -100.65625 C 138.882812 -99.03125 138.128906 -97.023438 137.484375 -94.640625 L 110.4375 0.484375 L 99.203125 0.484375 L 74.765625 -76.0625 L 49.6875 0.484375 Z M 38.4375 0.484375 "/></g></g></g><g fill="#000000" fill-opacity="1"><g transform="translate(239.041091, 191.492343)"><g><path d="M 59.625 2.9375 C 49.082031 2.9375 39.550781 0.789062 31.03125 -3.5 C 22.507812 -7.789062 15.75 -14.171875 10.75 -22.640625 C 5.757812 -31.109375 3.265625 -41.476562 3.265625 -53.75 C 3.265625 -63.09375 4.78125 -71.289062 7.8125 -78.34375 C 10.851562 -85.40625 15.007812 -91.320312 20.28125 -96.09375 C 25.550781 -100.875 31.632812 -104.457031 38.53125 -106.84375 C 45.425781 -109.238281 52.726562 -110.4375 60.4375 -110.4375 C 66.625 -110.4375 72.320312 -109.726562 77.53125 -108.3125 C 82.75 -106.90625 87.640625 -104.953125 92.203125 -102.453125 L 92.84375 -82.421875 L 91.21875 -82.421875 L 83.078125 -95.453125 C 81.992188 -97.515625 80.796875 -99.382812 79.484375 -101.0625 C 78.179688 -102.75 76.554688 -104.03125 74.609375 -104.90625 C 72.972656 -105.664062 71.367188 -106.234375 69.796875 -106.609375 C 68.222656 -106.992188 66.242188 -107.1875 63.859375 -107.1875 C 57.554688 -107.1875 51.828125 -105.5 46.671875 -102.125 C 41.515625 -98.757812 37.382812 -93.195312 34.28125 -85.4375 C 31.1875 -77.675781 29.640625 -67.0625 29.640625 -53.59375 C 29.640625 -40.238281 31.101562 -29.675781 34.03125 -21.90625 C 36.96875 -14.144531 40.960938 -8.609375 46.015625 -5.296875 C 51.066406 -1.984375 56.738281 -0.328125 63.03125 -0.328125 C 66.507812 -0.328125 69.28125 -0.570312 71.34375 -1.0625 C 73.40625 -1.550781 75.46875 -2.285156 77.53125 -3.265625 C 79.59375 -4.128906 81.164062 -5.398438 82.25 -7.078125 C 83.34375 -8.765625 84.320312 -10.585938 85.1875 -12.546875 L 92.359375 -28.5 L 93.984375 -28.5 L 93.5 -5.21875 C 88.9375 -2.820312 83.832031 -0.863281 78.1875 0.65625 C 72.539062 2.175781 66.351562 2.9375 59.625 2.9375 Z M 59.625 2.9375 "/></g></g></g><g clip-path="url(#2e8a3e8233)"><path fill="#ffffff" d="M 52.859375 121.105469 L 365.5625 121.105469 L 365.5625 159.757812 L 52.859375 159.757812 Z M 52.859375 121.105469 " fill-opacity="1" fill-rule="nonzero"/></g><g fill="#000000" fill-opacity="1"><g transform="translate(71.987186, 147.921421)"><g><path d="M 6 0 L 4.296875 0 L 0.1875 -13.234375 L 1.765625 -13.234375 L 5.15625 -2.125 L 8.71875 -13.234375 L 10.4375 -13.234375 L 13.984375 -2.125 L 17.390625 -13.234375 L 18.96875 -13.234375 L 14.84375 0 L 13.15625 0 L 9.578125 -11.109375 Z M 6 0 "/></g></g></g><g fill="#000000" fill-opacity="1"><g transform="translate(104.519957, 147.921421)"><g><path d="M 12.3125 -13.234375 L 12.3125 0 L 10.8125 0 L 10.8125 -5.890625 L 3.125 -5.890625 L 3.125 0 L 1.625 0 L 1.625 -13.234375 L 3.125 -13.234375 L 3.125 -7.359375 L 10.8125 -7.359375 L 10.8125 -13.234375 Z M 12.3125 -13.234375 "/></g></g></g><g fill="#000000" fill-opacity="1"><g transform="translate(131.837923, 147.921421)"><g><path d="M 7.5 -13.390625 C 9.46875 -13.390625 11.082031 -12.726562 12.34375 -11.40625 C 13.582031 -10.132812 14.203125 -8.535156 14.203125 -6.609375 C 14.203125 -4.691406 13.582031 -3.09375 12.34375 -1.8125 C 11.082031 -0.5 9.46875 0.15625 7.5 0.15625 C 5.519531 0.15625 3.898438 -0.5 2.640625 -1.8125 C 1.398438 -3.09375 0.78125 -4.691406 0.78125 -6.609375 C 0.78125 -8.535156 1.398438 -10.132812 2.640625 -11.40625 C 3.898438 -12.726562 5.519531 -13.390625 7.5 -13.390625 Z M 7.5 -1.296875 C 9.070312 -1.296875 10.34375 -1.8125 11.3125 -2.84375 C 12.238281 -3.820312 12.703125 -5.078125 12.703125 -6.609375 C 12.703125 -8.140625 12.238281 -9.398438 11.3125 -10.390625 C 10.34375 -11.421875 9.070312 -11.9375 7.5 -11.9375 C 5.925781 -11.9375 4.648438 -11.421875 3.671875 -10.390625 C 2.742188 -9.398438 2.28125 -8.140625 2.28125 -6.609375 C 2.28125 -5.078125 2.742188 -3.820312 3.671875 -2.84375 C 4.648438 -1.8125 5.925781 -1.296875 7.5 -1.296875 Z M 7.5 -1.296875 "/></g></g></g><g fill="#000000" fill-opacity="1"><g transform="translate(160.214837, 147.921421)"><g/></g></g><g fill="#000000" fill-opacity="1"><g transform="translate(177.86245, 147.921421)"><g><path d="M 7.515625 -1.296875 C 8.460938 -1.296875 9.289062 -1.535156 10 -2.015625 C 10.71875 -2.492188 11.25 -3.140625 11.59375 -3.953125 L 13.171875 -3.953125 C 12.734375 -2.703125 12.003906 -1.71875 10.984375 -1 C 9.910156 -0.226562 8.640625 0.15625 7.171875 0.15625 C 5.242188 0.15625 3.679688 -0.5 2.484375 -1.8125 C 1.347656 -3.082031 0.78125 -4.679688 0.78125 -6.609375 C 0.78125 -8.546875 1.347656 -10.144531 2.484375 -11.40625 C 3.679688 -12.726562 5.242188 -13.390625 7.171875 -13.390625 C 8.640625 -13.390625 9.910156 -13.003906 10.984375 -12.234375 C 12.003906 -11.515625 12.734375 -10.523438 13.171875 -9.265625 L 11.59375 -9.265625 C 11.25 -10.078125 10.71875 -10.722656 10 -11.203125 C 9.289062 -11.691406 8.460938 -11.9375 7.515625 -11.9375 C 6.566406 -11.9375 5.78125 -11.796875 5.15625 -11.515625 C 4.53125 -11.242188 4.003906 -10.867188 3.578125 -10.390625 C 2.710938 -9.421875 2.28125 -8.160156 2.28125 -6.609375 C 2.28125 -5.066406 2.710938 -3.8125 3.578125 -2.84375 C 4.484375 -1.8125 5.796875 -1.296875 7.515625 -1.296875 Z M 7.515625 -1.296875 "/></g></g></g><g fill="#000000" fill-opacity="1"><g transform="translate(205.040568, 147.921421)"><g><path d="M 3.125 -13.234375 L 3.125 -1.4375 L 10.328125 -1.4375 L 10.328125 0 L 1.625 0 L 1.625 -13.234375 Z M 3.125 -13.234375 "/></g></g></g><g fill="#000000" fill-opacity="1"><g transform="translate(229.081803, 147.921421)"><g><path d="M 7.5 -13.390625 C 9.46875 -13.390625 11.082031 -12.726562 12.34375 -11.40625 C 13.582031 -10.132812 14.203125 -8.535156 14.203125 -6.609375 C 14.203125 -4.691406 13.582031 -3.09375 12.34375 -1.8125 C 11.082031 -0.5 9.46875 0.15625 7.5 0.15625 C 5.519531 0.15625 3.898438 -0.5 2.640625 -1.8125 C 1.398438 -3.09375 0.78125 -4.691406 0.78125 -6.609375 C 0.78125 -8.535156 1.398438 -10.132812 2.640625 -11.40625 C 3.898438 -12.726562 5.519531 -13.390625 7.5 -13.390625 Z M 7.5 -1.296875 C 9.070312 -1.296875 10.34375 -1.8125 11.3125 -2.84375 C 12.238281 -3.820312 12.703125 -5.078125 12.703125 -6.609375 C 12.703125 -8.140625 12.238281 -9.398438 11.3125 -10.390625 C 10.34375 -11.421875 9.070312 -11.9375 7.5 -11.9375 C 5.925781 -11.9375 4.648438 -11.421875 3.671875 -10.390625 C 2.742188 -9.398438 2.28125 -8.140625 2.28125 -6.609375 C 2.28125 -5.078125 2.742188 -3.820312 3.671875 -2.84375 C 4.648438 -1.8125 5.925781 -1.296875 7.5 -1.296875 Z M 7.5 -1.296875 "/></g></g></g><g fill="#000000" fill-opacity="1"><g transform="translate(257.458722, 147.921421)"><g><path d="M 11.015625 -11.796875 L 6.390625 -11.796875 L 6.390625 0 L 4.890625 0 L 4.890625 -11.796875 L 0.28125 -11.796875 L 0.28125 -13.234375 L 11.015625 -13.234375 Z M 11.015625 -11.796875 "/></g></g></g><g fill="#000000" fill-opacity="1"><g transform="translate(282.139319, 147.921421)"><g><path d="M 12.3125 -13.234375 L 12.3125 0 L 10.8125 0 L 10.8125 -5.890625 L 3.125 -5.890625 L 3.125 0 L 1.625 0 L 1.625 -13.234375 L 3.125 -13.234375 L 3.125 -7.359375 L 10.8125 -7.359375 L 10.8125 -13.234375 Z M 12.3125 -13.234375 "/></g></g></g><g fill="#000000" fill-opacity="1"><g transform="translate(309.457291, 147.921421)"><g><path d="M 3.125 -11.796875 L 3.125 -7.359375 L 10.46875 -7.359375 L 10.46875 -5.890625 L 3.125 -5.890625 L 3.125 -1.4375 L 11.34375 -1.4375 L 11.34375 0 L 1.625 0 L 1.625 -13.234375 L 11.34375 -13.234375 L 11.34375 -11.796875 Z M 3.125 -11.796875 "/></g></g></g><g fill="#000000" fill-opacity="1"><g transform="translate(334.997028, 147.921421)"><g><path d="M 3.140625 -11.203125 C 2.890625 -10.984375 2.71875 -10.738281 2.625 -10.46875 C 2.539062 -10.207031 2.5 -9.925781 2.5 -9.625 C 2.5 -9.320312 2.628906 -9.039062 2.890625 -8.78125 C 3.148438 -8.53125 3.492188 -8.316406 3.921875 -8.140625 C 4.347656 -7.972656 4.832031 -7.820312 5.375 -7.6875 C 5.914062 -7.5625 6.46875 -7.425781 7.03125 -7.28125 C 7.601562 -7.144531 8.160156 -6.984375 8.703125 -6.796875 C 9.253906 -6.617188 9.742188 -6.390625 10.171875 -6.109375 C 11.117188 -5.515625 11.59375 -4.695312 11.59375 -3.65625 C 11.59375 -2.414062 11.128906 -1.46875 10.203125 -0.8125 C 9.273438 -0.164062 7.992188 0.15625 6.359375 0.15625 C 4.503906 0.15625 3.09375 -0.226562 2.125 -1 C 1.25 -1.6875 0.753906 -2.671875 0.640625 -3.953125 L 2.203125 -3.953125 C 2.253906 -3.046875 2.691406 -2.351562 3.515625 -1.875 C 4.234375 -1.46875 5.1875 -1.265625 6.375 -1.265625 C 8.851562 -1.265625 10.09375 -2.039062 10.09375 -3.59375 C 10.09375 -4.125 9.867188 -4.539062 9.421875 -4.84375 C 8.972656 -5.15625 8.410156 -5.410156 7.734375 -5.609375 C 7.066406 -5.816406 6.34375 -6.003906 5.5625 -6.171875 C 4.78125 -6.347656 4.050781 -6.570312 3.375 -6.84375 C 2.707031 -7.113281 2.148438 -7.472656 1.703125 -7.921875 C 1.265625 -8.367188 1.046875 -8.972656 1.046875 -9.734375 C 1.046875 -10.804688 1.457031 -11.679688 2.28125 -12.359375 C 3.101562 -13.046875 4.347656 -13.390625 6.015625 -13.390625 C 7.691406 -13.390625 8.988281 -13.003906 9.90625 -12.234375 C 10.75 -11.554688 11.195312 -10.679688 11.25 -9.609375 L 9.71875 -9.609375 C 9.582031 -10.703125 8.875 -11.429688 7.59375 -11.796875 C 7.144531 -11.921875 6.582031 -11.984375 5.90625 -11.984375 C 5.226562 -11.984375 4.660156 -11.90625 4.203125 -11.75 C 3.742188 -11.601562 3.390625 -11.421875 3.140625 -11.203125 Z M 3.140625 -11.203125 "/></g></g></g></svg>